<mxfile host="65bd71144e">
    <diagram name="Page-1" id="S3q4ul52Kdpv-fdItUzm">
        <mxGraphModel dx="1802" dy="791" grid="1" gridSize="10" guides="1" tooltips="1" connect="1" arrows="1" fold="1" page="1" pageScale="1" pageWidth="850" pageHeight="1100" math="0" shadow="0">
            <root>
                <mxCell id="0"/>
                <mxCell id="1" parent="0"/>
                <mxCell id="eVKgln4NPiogpc2pt0qy-58" value="" style="rounded=0;whiteSpace=wrap;html=1;strokeColor=none;" parent="1" vertex="1">
                    <mxGeometry width="860" height="540" as="geometry"/>
                </mxCell>
                <mxCell id="eVKgln4NPiogpc2pt0qy-2" value="1&lt;br&gt;Disabled by 4" style="rounded=0;whiteSpace=wrap;html=1;perimeterSpacing=0;" parent="1" vertex="1">
                    <mxGeometry x="20" y="20" width="120" height="60" as="geometry"/>
                </mxCell>
                <mxCell id="eVKgln4NPiogpc2pt0qy-3" value="3&lt;br&gt;Available" style="rounded=0;whiteSpace=wrap;html=1;" parent="1" vertex="1">
                    <mxGeometry x="160" y="20" width="120" height="60" as="geometry"/>
                </mxCell>
                <mxCell id="eVKgln4NPiogpc2pt0qy-4" value="5&lt;br&gt;Available" style="rounded=0;whiteSpace=wrap;html=1;" parent="1" vertex="1">
                    <mxGeometry x="300" y="20" width="120" height="60" as="geometry"/>
                </mxCell>
                <mxCell id="eVKgln4NPiogpc2pt0qy-5" value="7&lt;br&gt;Disabled by 10" style="rounded=0;whiteSpace=wrap;html=1;" parent="1" vertex="1">
                    <mxGeometry x="440" y="20" width="120" height="60" as="geometry"/>
                </mxCell>
                <mxCell id="eVKgln4NPiogpc2pt0qy-6" value="9&lt;br&gt;Split x4" style="rounded=0;whiteSpace=wrap;html=1;" parent="1" vertex="1">
                    <mxGeometry x="580" y="20" width="120" height="60" as="geometry"/>
                </mxCell>
                <mxCell id="eVKgln4NPiogpc2pt0qy-7" value="11&lt;br&gt;Available" style="rounded=0;whiteSpace=wrap;html=1;" parent="1" vertex="1">
                    <mxGeometry x="720" y="20" width="120" height="60" as="geometry"/>
                </mxCell>
                <mxCell id="eVKgln4NPiogpc2pt0qy-8" value="2&lt;br&gt;Not split x1" style="rounded=0;whiteSpace=wrap;html=1;" parent="1" vertex="1">
                    <mxGeometry x="20" y="100" width="120" height="60" as="geometry"/>
                </mxCell>
                <mxCell id="eVKgln4NPiogpc2pt0qy-9" value="4&lt;br&gt;Split x4" style="rounded=0;whiteSpace=wrap;html=1;" parent="1" vertex="1">
                    <mxGeometry x="160" y="100" width="120" height="60" as="geometry"/>
                </mxCell>
                <mxCell id="eVKgln4NPiogpc2pt0qy-10" value="6&lt;br&gt;Available" style="rounded=0;whiteSpace=wrap;html=1;" parent="1" vertex="1">
                    <mxGeometry x="300" y="100" width="120" height="60" as="geometry"/>
                </mxCell>
                <mxCell id="eVKgln4NPiogpc2pt0qy-11" value="8&lt;br&gt;Available" style="rounded=0;whiteSpace=wrap;html=1;" parent="1" vertex="1">
                    <mxGeometry x="440" y="100" width="120" height="60" as="geometry"/>
                </mxCell>
                <mxCell id="eVKgln4NPiogpc2pt0qy-12" value="10&lt;br&gt;Split x4" style="rounded=0;whiteSpace=wrap;html=1;" parent="1" vertex="1">
                    <mxGeometry x="580" y="100" width="120" height="60" as="geometry"/>
                </mxCell>
                <mxCell id="eVKgln4NPiogpc2pt0qy-13" value="12&lt;br&gt;Disabled by 9" style="rounded=0;whiteSpace=wrap;html=1;" parent="1" vertex="1">
                    <mxGeometry x="720" y="100" width="120" height="60" as="geometry"/>
                </mxCell>
                <mxCell id="eVKgln4NPiogpc2pt0qy-14" value="13&lt;br&gt;Available" style="rounded=0;whiteSpace=wrap;html=1;" parent="1" vertex="1">
                    <mxGeometry x="20" y="200" width="120" height="60" as="geometry"/>
                </mxCell>
                <mxCell id="eVKgln4NPiogpc2pt0qy-15" value="15&lt;br&gt;Available" style="rounded=0;whiteSpace=wrap;html=1;" parent="1" vertex="1">
                    <mxGeometry x="160" y="200" width="120" height="60" as="geometry"/>
                </mxCell>
                <mxCell id="eVKgln4NPiogpc2pt0qy-16" value="17&lt;br&gt;Available" style="rounded=0;whiteSpace=wrap;html=1;" parent="1" vertex="1">
                    <mxGeometry x="300" y="200" width="120" height="60" as="geometry"/>
                </mxCell>
                <mxCell id="eVKgln4NPiogpc2pt0qy-17" value="19&lt;br&gt;Available" style="rounded=0;whiteSpace=wrap;html=1;" parent="1" vertex="1">
                    <mxGeometry x="440" y="200" width="120" height="60" as="geometry"/>
                </mxCell>
                <mxCell id="eVKgln4NPiogpc2pt0qy-18" value="21&lt;br&gt;Available" style="rounded=0;whiteSpace=wrap;html=1;" parent="1" vertex="1">
                    <mxGeometry x="580" y="200" width="120" height="60" as="geometry"/>
                </mxCell>
                <mxCell id="eVKgln4NPiogpc2pt0qy-19" value="23&lt;br&gt;Available" style="rounded=0;whiteSpace=wrap;html=1;" parent="1" vertex="1">
                    <mxGeometry x="720" y="200" width="120" height="60" as="geometry"/>
                </mxCell>
                <mxCell id="eVKgln4NPiogpc2pt0qy-20" value="14&lt;br&gt;Available" style="rounded=0;whiteSpace=wrap;html=1;" parent="1" vertex="1">
                    <mxGeometry x="20" y="280" width="120" height="60" as="geometry"/>
                </mxCell>
                <mxCell id="eVKgln4NPiogpc2pt0qy-21" value="16&lt;br&gt;Available" style="rounded=0;whiteSpace=wrap;html=1;" parent="1" vertex="1">
                    <mxGeometry x="160" y="280" width="120" height="60" as="geometry"/>
                </mxCell>
                <mxCell id="eVKgln4NPiogpc2pt0qy-22" value="18&lt;br&gt;Available" style="rounded=0;whiteSpace=wrap;html=1;" parent="1" vertex="1">
                    <mxGeometry x="300" y="280" width="120" height="60" as="geometry"/>
                </mxCell>
                <mxCell id="eVKgln4NPiogpc2pt0qy-23" value="20&lt;br&gt;Available" style="rounded=0;whiteSpace=wrap;html=1;" parent="1" vertex="1">
                    <mxGeometry x="440" y="280" width="120" height="60" as="geometry"/>
                </mxCell>
                <mxCell id="eVKgln4NPiogpc2pt0qy-24" value="22&lt;br&gt;Available" style="rounded=0;whiteSpace=wrap;html=1;" parent="1" vertex="1">
                    <mxGeometry x="580" y="280" width="120" height="60" as="geometry"/>
                </mxCell>
                <mxCell id="eVKgln4NPiogpc2pt0qy-25" value="24&lt;br&gt;Available" style="rounded=0;whiteSpace=wrap;html=1;" parent="1" vertex="1">
                    <mxGeometry x="720" y="280" width="120" height="60" as="geometry"/>
                </mxCell>
                <mxCell id="eVKgln4NPiogpc2pt0qy-38" value="25&lt;br&gt;Disabled by 28" style="rounded=0;whiteSpace=wrap;html=1;" parent="1" vertex="1">
                    <mxGeometry x="20" y="380" width="120" height="60" as="geometry"/>
                </mxCell>
                <mxCell id="eVKgln4NPiogpc2pt0qy-39" value="27&lt;br&gt;Split x4" style="rounded=0;whiteSpace=wrap;html=1;" parent="1" vertex="1">
                    <mxGeometry x="160" y="380" width="120" height="60" as="geometry"/>
                </mxCell>
                <mxCell id="eVKgln4NPiogpc2pt0qy-40" value="29&lt;br&gt;Available" style="rounded=0;whiteSpace=wrap;html=1;" parent="1" vertex="1">
                    <mxGeometry x="300" y="380" width="120" height="60" as="geometry"/>
                </mxCell>
                <mxCell id="eVKgln4NPiogpc2pt0qy-41" value="31&lt;br&gt;Disabled by 32" style="rounded=0;whiteSpace=wrap;html=1;" parent="1" vertex="1">
                    <mxGeometry x="440" y="380" width="120" height="60" as="geometry"/>
                </mxCell>
                <mxCell id="eVKgln4NPiogpc2pt0qy-42" value="33&lt;br&gt;Split x4" style="rounded=0;whiteSpace=wrap;html=1;" parent="1" vertex="1">
                    <mxGeometry x="580" y="380" width="120" height="60" as="geometry"/>
                </mxCell>
                <mxCell id="eVKgln4NPiogpc2pt0qy-43" value="35&lt;br&gt;Available" style="rounded=0;whiteSpace=wrap;html=1;" parent="1" vertex="1">
                    <mxGeometry x="720" y="380" width="120" height="60" as="geometry"/>
                </mxCell>
                <mxCell id="eVKgln4NPiogpc2pt0qy-44" value="26&lt;br&gt;Available" style="rounded=0;whiteSpace=wrap;html=1;" parent="1" vertex="1">
                    <mxGeometry x="20" y="460" width="120" height="60" as="geometry"/>
                </mxCell>
                <mxCell id="eVKgln4NPiogpc2pt0qy-45" value="28&lt;br&gt;Split x4" style="rounded=0;whiteSpace=wrap;html=1;" parent="1" vertex="1">
                    <mxGeometry x="160" y="460" width="120" height="60" as="geometry"/>
                </mxCell>
                <mxCell id="eVKgln4NPiogpc2pt0qy-46" value="30&lt;br&gt;Disabled by 27" style="rounded=0;whiteSpace=wrap;html=1;" parent="1" vertex="1">
                    <mxGeometry x="300" y="460" width="120" height="60" as="geometry"/>
                </mxCell>
                <mxCell id="eVKgln4NPiogpc2pt0qy-47" value="32&lt;br&gt;Split x4" style="rounded=0;whiteSpace=wrap;html=1;" parent="1" vertex="1">
                    <mxGeometry x="440" y="460" width="120" height="60" as="geometry"/>
                </mxCell>
                <mxCell id="eVKgln4NPiogpc2pt0qy-48" value="34&lt;br&gt;Available" style="rounded=0;whiteSpace=wrap;html=1;" parent="1" vertex="1">
                    <mxGeometry x="580" y="460" width="120" height="60" as="geometry"/>
                </mxCell>
                <mxCell id="eVKgln4NPiogpc2pt0qy-49" value="36&lt;br&gt;Disabled by 33" style="rounded=0;whiteSpace=wrap;html=1;" parent="1" vertex="1">
                    <mxGeometry x="720" y="460" width="120" height="60" as="geometry"/>
                </mxCell>
                <mxCell id="eVKgln4NPiogpc2pt0qy-50" value="" style="endArrow=none;html=1;rounded=0;" parent="1" edge="1">
                    <mxGeometry width="50" height="50" relative="1" as="geometry">
                        <mxPoint as="sourcePoint"/>
                        <mxPoint x="860" as="targetPoint"/>
                    </mxGeometry>
                </mxCell>
                <mxCell id="eVKgln4NPiogpc2pt0qy-51" value="" style="endArrow=none;html=1;rounded=0;" parent="1" edge="1">
                    <mxGeometry width="50" height="50" relative="1" as="geometry">
                        <mxPoint y="180" as="sourcePoint"/>
                        <mxPoint x="860" y="180" as="targetPoint"/>
                    </mxGeometry>
                </mxCell>
                <mxCell id="eVKgln4NPiogpc2pt0qy-52" value="" style="endArrow=none;html=1;rounded=0;" parent="1" edge="1">
                    <mxGeometry width="50" height="50" relative="1" as="geometry">
                        <mxPoint y="180" as="sourcePoint"/>
                        <mxPoint as="targetPoint"/>
                    </mxGeometry>
                </mxCell>
                <mxCell id="eVKgln4NPiogpc2pt0qy-53" value="" style="endArrow=none;html=1;rounded=0;" parent="1" edge="1">
                    <mxGeometry width="50" height="50" relative="1" as="geometry">
                        <mxPoint y="360" as="sourcePoint"/>
                        <mxPoint x="860" y="360" as="targetPoint"/>
                    </mxGeometry>
                </mxCell>
                <mxCell id="eVKgln4NPiogpc2pt0qy-54" value="" style="endArrow=none;html=1;rounded=0;" parent="1" edge="1">
                    <mxGeometry width="50" height="50" relative="1" as="geometry">
                        <mxPoint y="540" as="sourcePoint"/>
                        <mxPoint x="860" y="540" as="targetPoint"/>
                    </mxGeometry>
                </mxCell>
                <mxCell id="eVKgln4NPiogpc2pt0qy-55" value="" style="endArrow=none;html=1;rounded=0;" parent="1" edge="1">
                    <mxGeometry width="50" height="50" relative="1" as="geometry">
                        <mxPoint x="860" y="540" as="sourcePoint"/>
                        <mxPoint x="860" y="360" as="targetPoint"/>
                    </mxGeometry>
                </mxCell>
            </root>
        </mxGraphModel>
    </diagram>
</mxfile>